<?xml version="1.0" encoding="UTF-8"?>
<svg id="Layer_2" data-name="Layer 2" xmlns="http://www.w3.org/2000/svg" viewBox="0 0 86.51 66.8" width="100" height="100">>
  <g id="Layer_1-2" data-name="Layer 1">
    <path d="m77.66,13.22c2.08.4,4.06,1.43,5.66,3.08,4.25,4.36,4.25,11.42,0,15.79l-20.02,20.55c-1.32,1.32-2.98,2.06-4.7,2.25l11.91,11.92-61.67-13.2c-2.06-.4-4.06-1.43-5.66-3.08-4.25-4.36-4.25-11.42,0-15.79L23.21,14.19c1.32-1.32,2.98-2.06,4.7-2.25L15.98,0l61.68,13.22Zm-20.64,40.1c.21-.17.4-.35.59-.54,3.08-3.08,3.08-8.06,0-11.14L29.49,13.5c-.21.16-.4.35-.59.52-3.08,3.08-3.08,8.06,0,11.14l28.13,28.13-.02.02Z"/>
  </g>
</svg>